<!-- Generator: Adobe Illustrator 25.0.1, SVG Export Plug-In  -->
<svg version="1.1" xmlns="http://www.w3.org/2000/svg" xmlns:xlink="http://www.w3.org/1999/xlink" x="0px" y="0px" width="4.19px"
	 height="4.19px" viewBox="0 0 4.19 4.19" style="overflow:visible;enable-background:new 0 0 4.19 4.19;" xml:space="preserve">
<style type="text/css">
	.st0{fill:url(#SVGID_1_);}
	.st1{fill-rule:evenodd;clip-rule:evenodd;fill:#FFFFFF;}
	.st2{fill:url(#SVGID_2_);}
</style>
<defs>
</defs>
<g>
	<linearGradient id="SVGID_1_" gradientUnits="userSpaceOnUse" x1="2.0952" y1="-2.3023" x2="2.0952" y2="4.5901">
		<stop  offset="0.3172" style="stop-color:#20A9E5"/>
		<stop  offset="0.672" style="stop-color:#1686C3"/>
	</linearGradient>
	<path class="st0" d="M4.19,2.1c0,1.16-0.94,2.1-2.09,2.1C0.94,4.19,0,3.25,0,2.1C0,0.94,0.94,0,2.1,0C3.25,0,4.19,0.94,4.19,2.1z"
		/>
	<g>
		<g>
			<path class="st1" d="M0.83,2.95c0.2,0.01,0.39-0.02,0.57-0.1c0.08-0.04,0.16-0.08,0.23-0.14c-0.09,0-0.17-0.02-0.24-0.06
				C1.27,2.59,1.18,2.49,1.13,2.36C1.12,2.33,1.12,2.33,1.15,2.33c0.09,0.01,0.15,0.01,0.2-0.01C1.31,2.3,1.26,2.29,1.22,2.27
				c-0.18-0.1-0.28-0.26-0.3-0.47c0-0.02,0-0.03,0.03-0.02c0.06,0.04,0.13,0.05,0.22,0.06C1.13,1.81,1.1,1.78,1.08,1.76
				C0.92,1.59,0.89,1.33,0.99,1.13c0.01-0.03,0.02-0.03,0.04,0C1.28,1.42,1.6,1.6,1.99,1.66c0.04,0.01,0.08,0.01,0.12,0.02
				c0.03,0,0.03-0.01,0.03-0.03C2.1,1.42,2.2,1.19,2.41,1.07c0.21-0.12,0.48-0.08,0.65,0.08C3.08,1.17,3.1,1.17,3.12,1.17
				c0.1-0.02,0.2-0.06,0.29-0.11c0.01,0,0.01-0.01,0.02-0.01C3.39,1.17,3.32,1.27,3.2,1.34C3.31,1.33,3.4,1.3,3.5,1.27
				c0,0.01-0.01,0.02-0.01,0.03C3.42,1.39,3.34,1.47,3.25,1.53C3.24,1.54,3.23,1.56,3.23,1.58c0.01,0.4-0.12,0.76-0.38,1.08
				C2.61,2.94,2.3,3.11,1.93,3.17c-0.39,0.06-0.76,0-1.1-0.21C0.83,2.95,0.83,2.95,0.83,2.95z"/>
		</g>
	</g>
</g>
</svg>
